<svg width="291" height="152" viewBox="0 0 291 152" fill="none" xmlns="http://www.w3.org/2000/svg">
<g clip-path="url(#clip0_104_183)">
<g filter="url(#filter0_d_104_183)">
<path d="M75.2026 38.9582C79.8518 37.5104 83.1238 33.6945 82.5109 30.4352C81.898 27.1758 77.6322 25.7072 72.983 27.155C68.3338 28.6027 65.0618 32.4186 65.6747 35.678C66.2877 38.9374 70.5535 40.406 75.2026 38.9582Z" fill="#3C6FFF"/>
<path d="M56.0325 51.5383C60.6816 50.0905 63.9537 46.2746 63.3408 43.0152C62.7278 39.7559 58.462 38.2873 53.8129 39.735C49.1637 41.1828 45.8917 44.9987 46.5046 48.2581C47.1175 51.5174 51.3833 52.986 56.0325 51.5383Z" fill="#3C6FFF"/>
<path d="M114.272 25.165C114.862 24.9426 115.503 24.782 116.102 24.9808C119.057 25.9623 119.918 31.6346 120.549 36.456C120.984 39.7831 118.693 43.5315 115.466 44.4476C88.7046 52.042 62.3115 66.8131 57.2827 79.9624C56.4081 82.2499 57.8918 84.3155 60.3361 84.1619C95.4198 81.956 101.2 86.3501 67.4075 96.0344C64.3286 96.9165 61.3569 97.7821 58.5441 98.6349C52.5577 100.451 48.558 107.584 54.5094 109.512C57.9217 110.617 62.2545 110.56 65.8998 110.288C70.6683 109.931 75.5798 109.467 80.3169 108.811C95.5078 106.708 105.829 104.445 112.837 102.315C115.813 101.411 124.291 107.99 121.728 109.752C117.417 112.713 33.5219 136.524 27.2479 112.747C21.0121 89.1155 65.9579 43.3678 114.272 25.165Z" fill="#3C6FFF"/>
</g>
<path d="M154.01 74.6749L140.135 48.7162H149.3L159.028 68.2749L156.826 68.4285L166.401 48.7162H175.565L161.434 74.6749V86.3997H154.01V74.6749ZM175.027 67.6093C175.027 65.0151 175.522 62.5575 176.512 60.2365C177.501 57.9154 178.867 55.8674 180.608 54.0925C182.382 52.2832 184.43 50.8666 186.752 49.8426C189.073 48.8186 191.564 48.3066 194.227 48.3066C196.855 48.3066 199.33 48.8186 201.651 49.8426C203.972 50.8666 206.02 52.2832 207.795 54.0925C209.604 55.8674 211.003 57.9154 211.993 60.2365C213.017 62.5575 213.529 65.0151 213.529 67.6093C213.529 70.2717 213.017 72.7634 211.993 75.0844C211.003 77.4055 209.604 79.4535 207.795 81.2285C206.02 82.9693 203.972 84.3346 201.651 85.3244C199.33 86.3143 196.855 86.8093 194.227 86.8093C191.564 86.8093 189.073 86.3143 186.752 85.3244C184.43 84.3346 182.382 82.9693 180.608 81.2285C178.867 79.4535 177.501 77.4055 176.512 75.0844C175.522 72.7634 175.027 70.2717 175.027 67.6093ZM182.707 67.6093C182.707 69.2818 182.997 70.8519 183.577 72.3197C184.192 73.7533 185.028 75.0333 186.086 76.1597C187.178 77.2519 188.424 78.1053 189.824 78.7197C191.257 79.3341 192.81 79.6413 194.483 79.6413C196.087 79.6413 197.572 79.3341 198.937 78.7197C200.337 78.1053 201.548 77.2519 202.572 76.1597C203.596 75.0333 204.398 73.7533 204.979 72.3197C205.559 70.8519 205.849 69.2818 205.849 67.6093C205.849 65.9026 205.542 64.3154 204.928 62.8477C204.347 61.3799 203.528 60.0999 202.47 59.0077C201.446 57.8813 200.234 57.0109 198.835 56.3965C197.435 55.7821 195.916 55.4749 194.278 55.4749C192.64 55.4749 191.121 55.7821 189.721 56.3965C188.322 57.0109 187.093 57.8813 186.035 59.0077C184.977 60.0999 184.157 61.3799 183.577 62.8477C182.997 64.3154 182.707 65.9026 182.707 67.6093ZM227.587 72.4733C227.587 73.6679 227.945 74.8114 228.662 75.9037C229.379 76.9959 230.317 77.8834 231.478 78.566C232.673 79.2487 233.97 79.59 235.369 79.59C236.905 79.59 238.27 79.2487 239.465 78.566C240.66 77.8834 241.598 76.9959 242.281 75.9037C242.998 74.8114 243.356 73.6679 243.356 72.4733V48.7162H250.678V72.6269C250.678 75.3916 249.995 77.8493 248.63 79.9997C247.265 82.1159 245.421 83.7885 243.1 85.0173C240.779 86.2119 238.202 86.8093 235.369 86.8093C232.57 86.8093 230.01 86.2119 227.689 85.0173C225.402 83.7885 223.576 82.1159 222.211 79.9997C220.845 77.8493 220.163 75.3916 220.163 72.6269V48.7162H227.587V72.4733ZM271.049 48.7162C273.404 48.7162 275.503 49.0234 277.346 49.6378C279.189 50.2181 280.725 51.0714 281.954 52.1978C283.217 53.2901 284.173 54.6215 284.821 56.1917C285.47 57.7277 285.794 59.4685 285.794 61.4141C285.794 62.9501 285.555 64.4861 285.077 66.0221C284.634 67.5581 283.883 68.9575 282.825 70.2205C281.801 71.4834 280.435 72.5074 278.729 73.2924C277.022 74.0434 274.906 74.4188 272.38 74.4188H267.055V86.3997H259.631V48.7162H271.049ZM272.329 67.2509C273.455 67.2509 274.394 67.0631 275.145 66.6877C275.896 66.3122 276.476 65.8343 276.885 65.2541C277.329 64.6738 277.636 64.0765 277.807 63.4621C278.012 62.8135 278.114 62.2162 278.114 61.6701C278.114 61.2605 278.046 60.7485 277.909 60.1341C277.807 59.4855 277.568 58.837 277.193 58.1885C276.817 57.5399 276.237 56.9938 275.452 56.5501C274.701 56.1063 273.677 55.8845 272.38 55.8845H267.055V67.2509H272.329ZM279.292 71.8588L288.61 86.3997H279.957L270.434 72.0637L279.292 71.8588Z" fill="black"/>
<path d="M159.203 104.614C159.203 103.582 159.331 102.707 159.587 101.99C159.843 101.265 160.248 100.689 160.803 100.262C161.357 99.827 162.083 99.5326 162.979 99.379C163.431 99.3022 163.887 99.2382 164.348 99.187C164.818 99.1273 165.3 99.0675 165.795 99.0078L166.012 100.672C165.799 100.697 165.564 100.727 165.308 100.761C165.052 100.787 164.792 100.817 164.527 100.851C164.271 100.877 164.024 100.906 163.785 100.941C163.546 100.975 163.328 101.005 163.132 101.03C162.816 101.081 162.539 101.154 162.3 101.248C162.061 101.333 161.861 101.457 161.699 101.619C161.536 101.781 161.408 102.003 161.315 102.285C161.229 102.558 161.174 102.912 161.148 103.347H161.238C161.34 103.185 161.481 103.023 161.66 102.861C161.848 102.698 162.078 102.562 162.351 102.451C162.624 102.34 162.936 102.285 163.286 102.285C163.841 102.285 164.323 102.4 164.732 102.63C165.142 102.861 165.458 103.202 165.679 103.654C165.901 104.106 166.012 104.67 166.012 105.344C166.012 106.137 165.867 106.799 165.577 107.328C165.287 107.857 164.886 108.258 164.374 108.531C163.862 108.796 163.269 108.928 162.595 108.928C162.083 108.928 161.618 108.834 161.199 108.646C160.781 108.458 160.423 108.181 160.124 107.814C159.826 107.447 159.595 106.995 159.433 106.457C159.279 105.92 159.203 105.305 159.203 104.614ZM162.71 107.379C162.983 107.379 163.218 107.319 163.414 107.2C163.619 107.08 163.777 106.884 163.887 106.611C164.007 106.338 164.067 105.971 164.067 105.51C164.067 104.956 163.973 104.516 163.785 104.192C163.606 103.859 163.29 103.693 162.838 103.693C162.565 103.693 162.309 103.761 162.07 103.897C161.839 104.025 161.643 104.175 161.481 104.345C161.319 104.508 161.208 104.648 161.148 104.768C161.148 105.101 161.174 105.425 161.225 105.741C161.276 106.048 161.362 106.325 161.481 106.573C161.601 106.82 161.758 107.016 161.955 107.161C162.159 107.306 162.411 107.379 162.71 107.379ZM177.239 105.293C177.239 106.069 177.107 106.73 176.842 107.277C176.578 107.814 176.198 108.224 175.703 108.505C175.216 108.787 174.636 108.928 173.962 108.928C173.39 108.928 172.874 108.821 172.413 108.608C171.961 108.386 171.59 108.053 171.3 107.609C171.018 107.166 170.835 106.602 170.749 105.92H169.495V108.8H167.588V101.811H169.495V104.499H170.775C170.86 103.893 171.044 103.381 171.325 102.963C171.615 102.545 171.987 102.229 172.439 102.016C172.9 101.794 173.42 101.683 174.001 101.683C174.632 101.683 175.191 101.824 175.677 102.105C176.164 102.387 176.543 102.797 176.817 103.334C177.098 103.863 177.239 104.516 177.239 105.293ZM172.669 105.293C172.669 105.753 172.712 106.142 172.797 106.457C172.891 106.765 173.036 106.999 173.233 107.161C173.429 107.315 173.68 107.392 173.988 107.392C174.295 107.392 174.542 107.315 174.73 107.161C174.926 106.999 175.067 106.765 175.153 106.457C175.246 106.142 175.293 105.753 175.293 105.293C175.293 104.832 175.246 104.448 175.153 104.141C175.067 103.833 174.926 103.603 174.73 103.449C174.542 103.296 174.291 103.219 173.975 103.219C173.668 103.219 173.416 103.296 173.22 103.449C173.032 103.603 172.891 103.833 172.797 104.141C172.712 104.448 172.669 104.832 172.669 105.293ZM182.703 101.683C183.488 101.683 184.124 101.99 184.611 102.605C185.097 103.21 185.34 104.106 185.34 105.293C185.34 106.086 185.225 106.756 184.995 107.302C184.764 107.84 184.448 108.245 184.047 108.518C183.646 108.791 183.181 108.928 182.652 108.928C182.319 108.928 182.029 108.885 181.782 108.8C181.543 108.714 181.338 108.604 181.167 108.467C180.997 108.33 180.847 108.185 180.719 108.032H180.617C180.651 108.194 180.677 108.365 180.694 108.544C180.711 108.714 180.719 108.885 180.719 109.056V111.872H178.812V101.811H180.361L180.63 102.72H180.719C180.847 102.532 181.001 102.361 181.18 102.208C181.359 102.046 181.573 101.918 181.82 101.824C182.076 101.73 182.371 101.683 182.703 101.683ZM182.089 103.206C181.756 103.206 181.492 103.274 181.295 103.411C181.099 103.548 180.954 103.757 180.86 104.038C180.775 104.311 180.728 104.657 180.719 105.075V105.28C180.719 105.732 180.762 106.116 180.847 106.432C180.933 106.739 181.078 106.974 181.283 107.136C181.487 107.298 181.765 107.379 182.115 107.379C182.405 107.379 182.644 107.298 182.831 107.136C183.019 106.974 183.16 106.735 183.254 106.419C183.348 106.103 183.395 105.719 183.395 105.267C183.395 104.584 183.288 104.072 183.075 103.731C182.87 103.381 182.541 103.206 182.089 103.206ZM193.261 105.293C193.261 105.873 193.18 106.389 193.018 106.841C192.864 107.294 192.638 107.678 192.34 107.993C192.05 108.301 191.695 108.535 191.277 108.697C190.859 108.851 190.386 108.928 189.856 108.928C189.37 108.928 188.918 108.851 188.5 108.697C188.09 108.535 187.736 108.301 187.437 107.993C187.139 107.678 186.904 107.294 186.733 106.841C186.571 106.389 186.49 105.873 186.49 105.293C186.49 104.516 186.627 103.863 186.9 103.334C187.173 102.797 187.565 102.387 188.077 102.105C188.589 101.824 189.195 101.683 189.895 101.683C190.552 101.683 191.132 101.824 191.636 102.105C192.139 102.387 192.536 102.797 192.826 103.334C193.116 103.863 193.261 104.516 193.261 105.293ZM188.436 105.293C188.436 105.753 188.483 106.142 188.576 106.457C188.679 106.765 188.837 106.999 189.05 107.161C189.263 107.315 189.541 107.392 189.882 107.392C190.223 107.392 190.497 107.315 190.701 107.161C190.915 106.999 191.068 106.765 191.162 106.457C191.264 106.142 191.316 105.753 191.316 105.293C191.316 104.832 191.264 104.448 191.162 104.141C191.068 103.833 190.915 103.603 190.701 103.449C190.488 103.296 190.211 103.219 189.869 103.219C189.366 103.219 188.999 103.394 188.769 103.744C188.547 104.085 188.436 104.601 188.436 105.293ZM205.349 101.811V108.8H203.442V103.245H200.907V108.8H199V101.811H205.349ZM210.23 101.683C210.878 101.683 211.433 101.807 211.894 102.054C212.363 102.302 212.726 102.66 212.982 103.129C213.238 103.599 213.366 104.175 213.366 104.857V105.779H208.86C208.877 106.317 209.035 106.739 209.334 107.046C209.641 107.353 210.063 107.507 210.601 107.507C211.053 107.507 211.463 107.464 211.83 107.379C212.197 107.285 212.576 107.144 212.969 106.957V108.429C212.628 108.599 212.265 108.723 211.881 108.8C211.506 108.885 211.049 108.928 210.511 108.928C209.812 108.928 209.193 108.8 208.655 108.544C208.118 108.279 207.695 107.882 207.388 107.353C207.081 106.824 206.927 106.159 206.927 105.357C206.927 104.537 207.064 103.859 207.337 103.321C207.619 102.775 208.007 102.366 208.502 102.093C208.997 101.82 209.573 101.683 210.23 101.683ZM210.243 103.04C209.876 103.04 209.568 103.159 209.321 103.398C209.082 103.637 208.941 104.008 208.899 104.512H211.574C211.574 104.23 211.523 103.978 211.42 103.757C211.326 103.535 211.181 103.36 210.985 103.232C210.789 103.104 210.541 103.04 210.243 103.04ZM218.804 101.683C219.589 101.683 220.225 101.99 220.711 102.605C221.197 103.21 221.44 104.106 221.44 105.293C221.44 106.086 221.325 106.756 221.095 107.302C220.865 107.84 220.549 108.245 220.148 108.518C219.747 108.791 219.282 108.928 218.753 108.928C218.42 108.928 218.13 108.885 217.882 108.8C217.643 108.714 217.438 108.604 217.268 108.467C217.097 108.33 216.948 108.185 216.82 108.032H216.717C216.751 108.194 216.777 108.365 216.794 108.544C216.811 108.714 216.82 108.885 216.82 109.056V111.872H214.912V101.811H216.461L216.73 102.72H216.82C216.948 102.532 217.101 102.361 217.28 102.208C217.46 102.046 217.673 101.918 217.921 101.824C218.177 101.73 218.471 101.683 218.804 101.683ZM218.189 103.206C217.857 103.206 217.592 103.274 217.396 103.411C217.199 103.548 217.054 103.757 216.96 104.038C216.875 104.311 216.828 104.657 216.82 105.075V105.28C216.82 105.732 216.862 106.116 216.948 106.432C217.033 106.739 217.178 106.974 217.383 107.136C217.588 107.298 217.865 107.379 218.215 107.379C218.505 107.379 218.744 107.298 218.932 107.136C219.119 106.974 219.26 106.735 219.354 106.419C219.448 106.103 219.495 105.719 219.495 105.267C219.495 104.584 219.388 104.072 219.175 103.731C218.97 103.381 218.642 103.206 218.189 103.206ZM225.892 101.683C226.541 101.683 227.095 101.807 227.556 102.054C228.026 102.302 228.388 102.66 228.644 103.129C228.9 103.599 229.028 104.175 229.028 104.857V105.779H224.523C224.54 106.317 224.698 106.739 224.996 107.046C225.303 107.353 225.726 107.507 226.263 107.507C226.716 107.507 227.125 107.464 227.492 107.379C227.859 107.285 228.239 107.144 228.631 106.957V108.429C228.29 108.599 227.927 108.723 227.543 108.8C227.168 108.885 226.711 108.928 226.174 108.928C225.474 108.928 224.855 108.8 224.318 108.544C223.78 108.279 223.358 107.882 223.051 107.353C222.743 106.824 222.59 106.159 222.59 105.357C222.59 104.537 222.726 103.859 222.999 103.321C223.281 102.775 223.669 102.366 224.164 102.093C224.659 101.82 225.235 101.683 225.892 101.683ZM225.905 103.04C225.538 103.04 225.231 103.159 224.983 103.398C224.744 103.637 224.604 104.008 224.561 104.512H227.236C227.236 104.23 227.185 103.978 227.083 103.757C226.989 103.535 226.844 103.36 226.647 103.232C226.451 103.104 226.204 103.04 225.905 103.04ZM236.77 103.641C236.77 104.017 236.651 104.337 236.412 104.601C236.181 104.866 235.836 105.037 235.375 105.113V105.165C235.861 105.224 236.25 105.391 236.54 105.664C236.838 105.937 236.988 106.287 236.988 106.713C236.988 107.012 236.928 107.289 236.808 107.545C236.698 107.801 236.518 108.023 236.271 108.211C236.023 108.399 235.703 108.544 235.311 108.646C234.927 108.749 234.458 108.8 233.903 108.8H230.575V101.811H233.903C234.449 101.811 234.935 101.871 235.362 101.99C235.797 102.101 236.139 102.289 236.386 102.553C236.642 102.818 236.77 103.181 236.77 103.641ZM235.017 106.611C235.017 106.338 234.91 106.142 234.696 106.022C234.483 105.894 234.163 105.83 233.737 105.83H232.482V107.481H233.775C234.133 107.481 234.428 107.417 234.658 107.289C234.897 107.153 235.017 106.927 235.017 106.611ZM234.837 103.795C234.837 103.573 234.752 103.411 234.581 103.309C234.411 103.206 234.159 103.155 233.826 103.155H232.482V104.537H233.608C234.01 104.537 234.312 104.482 234.517 104.371C234.731 104.252 234.837 104.06 234.837 103.795ZM244.974 105.293C244.974 105.873 244.893 106.389 244.731 106.841C244.577 107.294 244.351 107.678 244.052 107.993C243.762 108.301 243.408 108.535 242.99 108.697C242.572 108.851 242.098 108.928 241.569 108.928C241.083 108.928 240.63 108.851 240.212 108.697C239.803 108.535 239.449 108.301 239.15 107.993C238.851 107.678 238.616 107.294 238.446 106.841C238.284 106.389 238.203 105.873 238.203 105.293C238.203 104.516 238.339 103.863 238.612 103.334C238.885 102.797 239.278 102.387 239.79 102.105C240.302 101.824 240.908 101.683 241.607 101.683C242.265 101.683 242.845 101.824 243.348 102.105C243.852 102.387 244.249 102.797 244.539 103.334C244.829 103.863 244.974 104.516 244.974 105.293ZM240.148 105.293C240.148 105.753 240.195 106.142 240.289 106.457C240.391 106.765 240.549 106.999 240.763 107.161C240.976 107.315 241.253 107.392 241.595 107.392C241.936 107.392 242.209 107.315 242.414 107.161C242.627 106.999 242.781 106.765 242.875 106.457C242.977 106.142 243.028 105.753 243.028 105.293C243.028 104.832 242.977 104.448 242.875 104.141C242.781 103.833 242.627 103.603 242.414 103.449C242.2 103.296 241.923 103.219 241.582 103.219C241.078 103.219 240.711 103.394 240.481 103.744C240.259 104.085 240.148 104.601 240.148 105.293ZM252.835 101.811V107.405H253.859V111.309H252.143V108.8H247.446V111.309H245.731V107.405H246.319C246.627 106.935 246.887 106.402 247.1 105.805C247.314 105.199 247.484 104.554 247.612 103.872C247.74 103.189 247.834 102.502 247.894 101.811H252.835ZM249.494 103.245C249.426 103.757 249.34 104.256 249.238 104.742C249.135 105.22 249.007 105.681 248.854 106.125C248.709 106.568 248.53 106.995 248.316 107.405H250.927V103.245H249.494ZM261.399 105.293C261.399 105.873 261.318 106.389 261.156 106.841C261.002 107.294 260.776 107.678 260.477 107.993C260.187 108.301 259.833 108.535 259.415 108.697C258.997 108.851 258.523 108.928 257.994 108.928C257.508 108.928 257.055 108.851 256.637 108.697C256.228 108.535 255.874 108.301 255.575 107.993C255.276 107.678 255.042 107.294 254.871 106.841C254.709 106.389 254.628 105.873 254.628 105.293C254.628 104.516 254.764 103.863 255.037 103.334C255.31 102.797 255.703 102.387 256.215 102.105C256.727 101.824 257.333 101.683 258.032 101.683C258.69 101.683 259.27 101.824 259.773 102.105C260.277 102.387 260.674 102.797 260.964 103.334C261.254 103.863 261.399 104.516 261.399 105.293ZM256.573 105.293C256.573 105.753 256.62 106.142 256.714 106.457C256.816 106.765 256.974 106.999 257.188 107.161C257.401 107.315 257.678 107.392 258.02 107.392C258.361 107.392 258.634 107.315 258.839 107.161C259.052 106.999 259.206 106.765 259.3 106.457C259.402 106.142 259.453 105.753 259.453 105.293C259.453 104.832 259.402 104.448 259.3 104.141C259.206 103.833 259.052 103.603 258.839 103.449C258.626 103.296 258.348 103.219 258.007 103.219C257.503 103.219 257.136 103.394 256.906 103.744C256.684 104.085 256.573 104.601 256.573 105.293ZM269.17 103.641C269.17 104.017 269.051 104.337 268.812 104.601C268.581 104.866 268.236 105.037 267.775 105.113V105.165C268.261 105.224 268.65 105.391 268.94 105.664C269.238 105.937 269.388 106.287 269.388 106.713C269.388 107.012 269.328 107.289 269.208 107.545C269.098 107.801 268.918 108.023 268.671 108.211C268.423 108.399 268.103 108.544 267.711 108.646C267.327 108.749 266.858 108.8 266.303 108.8H262.975V101.811H266.303C266.849 101.811 267.335 101.871 267.762 101.99C268.197 102.101 268.539 102.289 268.786 102.553C269.042 102.818 269.17 103.181 269.17 103.641ZM267.416 106.611C267.416 106.338 267.31 106.142 267.096 106.022C266.883 105.894 266.563 105.83 266.136 105.83H264.882V107.481H266.175C266.533 107.481 266.828 107.417 267.058 107.289C267.297 107.153 267.416 106.927 267.416 106.611ZM267.237 103.795C267.237 103.573 267.152 103.411 266.981 103.309C266.811 103.206 266.559 103.155 266.226 103.155H264.882V104.537H266.008C266.41 104.537 266.712 104.482 266.917 104.371C267.131 104.252 267.237 104.06 267.237 103.795Z" fill="black"/>
</g>
<defs>
<filter id="filter0_d_104_183" x="-23.3333" y="-21.1094" width="195.537" height="198.309" filterUnits="userSpaceOnUse" color-interpolation-filters="sRGB">
<feFlood flood-opacity="0" result="BackgroundImageFix"/>
<feColorMatrix in="SourceAlpha" type="matrix" values="0 0 0 0 0 0 0 0 0 0 0 0 0 0 0 0 0 0 127 0" result="hardAlpha"/>
<feOffset dy="4"/>
<feGaussianBlur stdDeviation="25"/>
<feComposite in2="hardAlpha" operator="out"/>
<feColorMatrix type="matrix" values="0 0 0 0 0.235294 0 0 0 0 0.435294 0 0 0 0 1 0 0 0 0.7 0"/>
<feBlend mode="normal" in2="BackgroundImageFix" result="effect1_dropShadow_104_183"/>
<feBlend mode="normal" in="SourceGraphic" in2="effect1_dropShadow_104_183" result="shape"/>
</filter>
<clipPath id="clip0_104_183">
<rect width="290.133" height="152" fill="white"/>
</clipPath>
</defs>
</svg>
